Coordinates
version=1
nRows=15
nColumns=42
inDegrees=yes

Units are S.I. units (second, meters, Newtons, ...)
If the header above contains a line with 'inDegrees', this indicates whether rotational values are in degrees (yes) or radians (no).

endheader
time	pelvis_tilt	pelvis_list	pelvis_rotation	pelvis_tx	pelvis_ty	pelvis_tz	hip_flexion_r	hip_adduction_r	hip_rotation_r	knee_angle_r	knee_adduction_r	knee_angle_r_beta	ankle_angle_r	subtalar_angle_r	mtp_angle_r	hip_flexion_l	hip_adduction_l	hip_rotation_l	knee_angle_l	knee_adduction_l	knee_angle_l_beta	ankle_angle_l	subtalar_angle_l	mtp_angle_l	lumbar_extension	lumbar_bending	lumbar_rotation	arm_flex_r	arm_add_r	arm_rot_r	elbow_flex_r	pro_sup_r	wrist_flex_r	wrist_dev_r	arm_flex_l	arm_add_l	arm_rot_l	elbow_flex_l	pro_sup_l	wrist_flex_l	wrist_dev_l
      1.07000000	     14.63660304	      5.02216334	      0.05120330	     -0.23068183	      0.93714332	     -0.27628130	     12.96492356	     -3.06873859	     -1.04578308	     37.09022897	     -0.19426563	      0.64734662	      7.16646805	    -12.18930281	     -7.76061137	    -17.44309796	     13.73879923	    -19.90195349	     11.43287587	     -6.30696483	      0.19954133	     21.49432991	     22.19446684	     -7.76061137	    -45.34943431	     -7.29510043	     -2.23692571	      1.76107221	     -8.56432822	      9.22286072	     40.29080404	     90.00000001	      0.00000000	      0.00000000	     -4.48102738	    -13.91782485	     17.58529107	     47.75544076	     90.00000001	      0.00000000	      0.00000000
      1.08000000	     14.67314732	      5.11442055	     -0.23000647	     -0.22487924	      0.93626103	     -0.27589634	     13.14784587	     -2.95663839	     -1.75730967	     34.84986902	     -0.62558218	      0.60824496	      7.72347971	    -10.61139883	     -7.75033249	    -18.27563522	     14.00741195	    -19.75959075	     10.72782213	     -6.21105653	      0.18723582	     21.46525189	     22.02343400	     -7.75033249	    -45.31150572	     -7.48472563	     -2.09797428	      1.69557215	     -8.55499521	      9.22036026	     40.37860426	     90.00000001	      0.00000000	      0.00000000	     -4.59824451	    -13.95278996	     17.63821049	     47.68343547	     90.00000001	      0.00000000	      0.00000000
      1.09000000	     14.64727846	      5.28859360	     -0.52667067	     -0.21900936	      0.93508656	     -0.27558453	     13.46784545	     -2.97124932	     -2.76498809	     32.81745086	     -1.15689749	      0.57277257	      8.60160342	     -8.16001826	     -7.72915939	    -19.02791696	     14.41308892	    -19.54322596	     10.03603580	     -6.16888487	      0.17516187	     21.50375581	     21.80860579	     -7.72915939	    -45.19557241	     -7.74592828	     -1.99404858	      1.62559821	     -8.54543111	      9.24444114	     40.38543614	     90.00000001	      0.00000000	      0.00000000	     -4.71116656	    -13.99179338	     17.71690475	     47.58521511	     90.00000001	      0.00000000	      0.00000000
      1.10000000	     14.43212876	      5.48824255	     -0.92683096	     -0.21339638	      0.93344973	     -0.27502798	     14.00461971	     -2.88902373	     -2.95961745	     30.88616960	     -1.43916741	      0.53906535	      8.84434080	     -7.41611359	     -7.72625916	    -19.36056915	     14.89664943	    -19.68642672	      9.61081547	     -6.31827865	      0.16774037	     21.70086612	     21.86078866	     -7.72625916	    -44.89400905	     -8.10420855	     -1.80996590	      1.56927889	     -8.52178072	      9.23424648	     40.34675187	     90.00000001	      0.00000000	      0.00000000	     -4.77843794	    -14.02471134	     17.76342409	     47.47608315	     90.00000001	      0.00000000	      0.00000000
      1.11000000	     14.63941049	      5.50753481	     -1.14855814	     -0.20712289	      0.93265983	     -0.27461351	     13.81523502	     -2.71541589	     -4.45084308	     28.69332258	     -2.10025821	      0.50079295	      9.81799332	     -4.27125311	     -7.71426231	    -20.43324763	     14.94103346	    -19.62452417	      8.96733978	     -5.98155980	      0.15650960	     21.70022980	     21.95121165	     -7.71426231	    -44.99552154	     -8.16161257	     -1.64044592	      1.45989216	     -8.53804273	      9.16860116	     40.46614914	     90.00000001	      0.00000000	      0.00000000	     -4.87873259	    -14.04797068	     17.87292652	     47.41857249	     90.00000001	      0.00000000	      0.00000000
      1.12000000	     14.45192815	      5.71712280	     -1.55894346	     -0.20131654	      0.93094093	     -0.27399469	     14.25120111	     -2.64601556	     -4.76866539	     26.95550128	     -2.38987764	      0.47046225	     10.18877573	     -3.12692752	     -7.71145824	    -20.80139218	     15.44449664	    -19.69435998	      8.55925713	     -6.13033212	      0.14938722	     21.91859917	     22.00198542	     -7.71145824	    -44.70960525	     -8.52382016	     -1.43943793	      1.40891209	     -8.51769288	      9.17292177	     40.35334431	     90.00000001	      0.00000000	      0.00000000	     -4.94243895	    -14.08061074	     17.95132519	     47.23406269	     90.00000001	      0.00000000	      0.00000000
      1.13000000	     14.34600772	      5.86238678	     -1.85928131	     -0.19528035	      0.92936331	     -0.27342390	     14.46071768	     -2.47791213	     -5.44810306	     25.17286660	     -2.87256575	      0.43934940	     10.62682343	     -1.53002362	     -7.70880827	    -21.30571440	     15.77984774	    -19.68641534	      8.16420389	     -6.15511852	      0.14249224	     22.07437459	     22.00570589	     -7.70880827	    -44.48755234	     -8.75791081	     -1.27084628	      1.32902270	     -8.48350840	      9.13706383	     40.34280663	     90.00000001	      0.00000000	      0.00000000	     -4.98659606	    -14.12095240	     18.04187282	     47.10272326	     90.00000001	      0.00000000	      0.00000000
      1.14000000	     14.42455391	      6.08485929	     -1.98478069	     -0.18859027	      0.92791855	     -0.27340176	     14.77226922	     -2.80079680	     -8.54017021	     24.16761920	     -3.69707934	      0.42180453	     12.33561862	      4.00610797	     -7.69175845	    -22.24070419	     16.13448406	    -19.14972684	      7.57266218	     -5.97983960	      0.13216789	     22.04145960	     21.56414614	     -7.69175845	    -44.41253775	     -8.90535103	     -1.26049350	      1.13181656	     -8.47581151	      9.08217999	     40.38366753	     90.00000001	      0.00000000	      0.00000000	     -5.12473801	    -14.20360481	     18.20010799	     47.09684592	     90.00000001	      0.00000000	      0.00000000
      1.15000000	     14.24720235	      6.26735943	     -2.29845473	     -0.18249816	      0.92612211	     -0.27282779	     15.09122985	     -2.68571904	     -8.99766868	     22.89386178	     -3.98892038	      0.39957327	     12.54726395	      4.77019600	     -7.68964297	    -22.56850305	     16.53989952	    -19.08721139	      7.34597375	     -6.08964520	      0.12821143	     22.25916825	     21.49462549	     -7.68964297	    -44.12414715	     -9.16317851	     -1.05788427	      1.05140322	     -8.46446630	      9.07267065	     40.28690855	     90.00000001	      0.00000000	      0.00000000	     -5.12326798	    -14.23065691	     18.26456931	     46.94379015	     90.00000001	      0.00000000	      0.00000000
      1.16000000	     14.17376511	      6.47674837	     -2.64170065	     -0.17609643	      0.92436361	     -0.27241382	     15.43706301	     -2.77888861	     -9.49383538	     22.27663271	     -4.00140820	      0.38880059	     12.65086977	      4.79449786	     -7.68951636	    -22.99687206	     16.91005161	    -19.22366876	      7.26319238	     -6.03982420	      0.12676662	     22.40219249	     21.45667937	     -7.68951636	    -43.89357499	     -9.41596389	     -0.92889601	      0.97118609	     -8.49518527	      9.06916924	     40.23800398	     90.00000001	      0.00000000	      0.00000000	     -5.29311258	    -14.20883208	     18.30249822	     46.86555951	     90.00000001	      0.00000000	      0.00000000
      1.17000000	     14.20366394	      6.62492903	     -2.52574590	     -0.16911860	      0.92306340	     -0.27252416	     15.49047367	     -2.96394104	    -12.85187451	     21.33513515	     -4.97569518	      0.37236835	     14.19577171	     10.95670433	     -7.67345894	    -23.97495623	     17.21050490	    -17.87199603	      6.56153495	     -6.05352466	      0.11452039	     22.27958746	     20.17795966	     -7.67345894	    -43.78824551	     -9.36599495	     -0.96856935	      0.77307043	     -8.41391478	      8.93304333	     40.17105231	     90.00000001	      0.00000000	      0.00000000	     -5.29278039	    -14.32394354	     18.56617495	     46.71508396	     90.00000001	      0.00000000	      0.00000000
      1.18000000	     14.15805838	      6.75569683	     -2.59855449	     -0.16235202	      0.92158441	     -0.27233702	     15.54591457	     -2.97720765	    -14.06092538	     20.69036663	     -5.30344954	      0.36111502	     14.55603792	     12.54379221	     -7.66261179	    -24.57683895	     17.44974896	    -17.35464401	      6.32638335	     -6.05942979	      0.11041622	     22.35096134	     19.66506035	     -7.66261179	    -43.60534755	     -9.39913637	     -0.87879093	      0.62096135	     -8.40672339	      8.87537290	     40.08570272	     90.00000001	      0.00000000	      0.00000000	     -5.34312240	    -14.34819035	     18.67632884	     46.60724196	     90.00000001	      0.00000000	      0.00000000
      1.19000000	     14.10009684	      6.85412922	     -2.67239909	     -0.15557102	      0.92016378	     -0.27208469	     15.52017870	     -2.87292655	    -14.69567382	     20.14053007	     -5.57219213	      0.35151856	     14.67714315	     13.03112622	     -7.66032525	    -25.06282637	     17.63989421	    -17.08080661	      6.24541235	     -6.13706694	      0.10900301	     22.57581656	     19.55301250	     -7.66032525	    -43.41612636	     -9.39889550	     -0.78972335	      0.53473501	     -8.39920367	      8.87558771	     39.92572781	     90.00000001	      0.00000000	      0.00000000	     -5.35846462	    -14.32620345	     18.76950204	     46.38752188	     90.00000001	      0.00000000	      0.00000000
      1.20000000	     14.01065011	      6.99109266	     -2.76548931	     -0.14864833	      0.91868958	     -0.27186771	     15.55948718	     -2.88417762	    -14.90631973	     19.98767194	     -5.62957862	      0.34885069	     14.69386696	     13.02351812	     -7.66007902	    -25.42662175	     17.82196158	    -17.07880821	      6.33771282	     -6.15693044	      0.11061396	     22.62754696	     19.52444213	     -7.66007902	    -43.18264319	     -9.42582933	     -0.72002865	      0.38341648	     -8.41621180	      8.87531099	     39.85521980	     90.00000001	      0.00000000	      0.00000000	     -5.47675751	    -14.31853347	     18.78487891	     46.33394143	     90.00000001	      0.00000000	      0.00000000
      1.21000000	     14.13034407	      6.98022171	     -2.51804508	     -0.14124117	      0.91791479	     -0.27197924	     15.18336192	     -2.84499958	    -16.75823704	     19.63778495	     -6.14995459	      0.34274401	     14.97458789	     15.23177370	     -7.65213946	    -26.32867935	     17.76929600	    -16.11916457	      6.08763498	     -6.16714655	      0.10624927	     22.61894246	     18.61889545	     -7.65213946	    -43.17776573	     -9.13158942	     -0.75099082	      0.24891279	     -8.36755452	      8.73398613	     39.69820043	     90.00000001	      0.00000000	      0.00000000	     -5.47753715	    -14.34961779	     18.98073016	     46.15309648	     90.00000001	      0.00000000	      0.00000000
